<svg xmlns="http://www.w3.org/2000/svg"  viewBox="0 0 64 64" width="64px" height="64px"><linearGradient id="GPHlwA0Kwo_D5MZr99xPXa" x1="32.969" x2="32.969" y1="47" y2="20" gradientTransform="matrix(1 0 0 -1 0 66)" gradientUnits="userSpaceOnUse"><stop offset="0" stop-color="#6dc7ff"/><stop offset="1" stop-color="#e6abff"/></linearGradient><path fill="url(#GPHlwA0Kwo_D5MZr99xPXa)" d="M21.113,26.108l0.599-1.193c0.182-0.362,0.554-0.591,0.96-0.591h0.751	c0.462,0,0.872-0.295,1.019-0.731l0.709-2.119c0.09-0.269,0.284-0.492,0.538-0.618l3.499-1.743c0.302-0.151,0.658-0.151,0.96,0	l1.016,0.506c0.413,0.206,0.913,0.125,1.239-0.2l0.078-0.078c0.288-0.286,0.713-0.386,1.099-0.258l5.618,1.866	c0.207,0.069,0.388,0.199,0.519,0.373l2.977,3.954c0.069,0.092,0.123,0.194,0.16,0.303l2.029,6.062	c0.068,0.204,0.073,0.425,0.014,0.632l-1.989,6.935c-0.07,0.244-0.225,0.455-0.437,0.596l-2.866,1.903	c-0.059,0.039-0.114,0.084-0.164,0.134l-1.934,1.927c-0.118,0.117-0.262,0.206-0.42,0.258l-2.877,0.955	c-0.109,0.036-0.224,0.055-0.34,0.055h-1.761c-0.167,0-0.331,0.039-0.48,0.113l-1.482,0.738c-0.302,0.151-0.658,0.151-0.96,0	l-3.49-1.738c-0.892-0.444-0.747-1.753,0.22-1.994l1.447-0.36c0.076-0.019,0.15-0.046,0.22-0.081l2.043-1.018	c0.027-0.013,0.054-0.025,0.081-0.036l5.151-2.052c0.183-0.073,0.342-0.194,0.46-0.351l3.057-4.06c0.03-0.04,0.064-0.079,0.1-0.115	l0.65-0.647c0.245-0.244,0.357-0.591,0.3-0.932l-0.914-5.461c-0.056-0.337-0.272-0.628-0.579-0.781l-1.38-0.687	c-0.208-0.103-0.376-0.271-0.48-0.478l-0.518-1.032c-0.239-0.476-0.793-0.705-1.3-0.536L31.93,24.3	c-0.048,0.016-0.095,0.035-0.141,0.058l-3.911,1.948c-0.255,0.127-0.448,0.349-0.538,0.618l-0.813,2.43	c-0.09,0.269-0.069,0.563,0.058,0.816l0.735,1.465c0.104,0.207,0.272,0.375,0.48,0.478l1.176,0.586	c0.413,0.206,0.913,0.125,1.239-0.2l0,0c0.327-0.325,0.408-0.823,0.201-1.234l-0.748-1.491v-1.09h3.604	c0.462,0,0.872,0.295,1.019,0.731l0.795,2.374c0.036,0.109,0.055,0.223,0.055,0.338v1.754c0,0.166-0.039,0.33-0.113,0.478	l-0.76,1.514c-0.14,0.279-0.396,0.484-0.7,0.559l-3.77,0.939c-0.085,0.021-0.173,0.032-0.26,0.032h-1.612	c-0.285,0-0.558-0.113-0.759-0.313l-3.884-3.869c-0.118-0.117-0.207-0.261-0.259-0.418l-1.968-5.881	C20.965,26.656,20.986,26.362,21.113,26.108z"/><linearGradient id="GPHlwA0Kwo_D5MZr99xPXb" x1="32" x2="32" y1="64" y2="51.307" gradientTransform="matrix(1 0 0 -1 0 66)" gradientUnits="userSpaceOnUse"><stop offset="0" stop-color="#6dc7ff"/><stop offset="1" stop-color="#e6abff"/></linearGradient><polygon fill="url(#GPHlwA0Kwo_D5MZr99xPXb)" points="39.811,14.693 32,2 24.189,14.693 32,12.693"/><linearGradient id="GPHlwA0Kwo_D5MZr99xPXc" x1="55.654" x2="55.654" y1="41.811" y2="26.189" gradientTransform="matrix(1 0 0 -1 0 66)" gradientUnits="userSpaceOnUse"><stop offset="0" stop-color="#6dc7ff"/><stop offset="1" stop-color="#e6abff"/></linearGradient><polygon fill="url(#GPHlwA0Kwo_D5MZr99xPXc)" points="49.307,39.811 62,32 49.307,24.189 51.307,32"/><linearGradient id="GPHlwA0Kwo_D5MZr99xPXd" x1="32" x2="32" y1="16.693" y2="4" gradientTransform="matrix(1 0 0 -1 0 66)" gradientUnits="userSpaceOnUse"><stop offset="0" stop-color="#6dc7ff"/><stop offset="1" stop-color="#e6abff"/></linearGradient><polygon fill="url(#GPHlwA0Kwo_D5MZr99xPXd)" points="24.189,49.307 32,62 39.811,49.307 32,51.307"/><linearGradient id="GPHlwA0Kwo_D5MZr99xPXe" x1="8.347" x2="8.347" y1="41.811" y2="26.189" gradientTransform="matrix(1 0 0 -1 0 66)" gradientUnits="userSpaceOnUse"><stop offset="0" stop-color="#6dc7ff"/><stop offset="1" stop-color="#e6abff"/></linearGradient><polygon fill="url(#GPHlwA0Kwo_D5MZr99xPXe)" points="14.693,24.189 2,32 14.693,39.811 12.693,32"/><linearGradient id="GPHlwA0Kwo_D5MZr99xPXf" x1="32" x2="32" y1="54" y2="14" gradientTransform="matrix(1 0 0 -1 0 66)" gradientUnits="userSpaceOnUse"><stop offset="0" stop-color="#1a6dff"/><stop offset="1" stop-color="#c822ff"/></linearGradient><path fill="url(#GPHlwA0Kwo_D5MZr99xPXf)" d="M32,52c-3.77,0-7.425-1.049-10.6-3.037l-7.167,2.04c-0.349,0.097-0.725,0.002-0.981-0.255	s-0.354-0.632-0.255-0.98l2.039-7.168C13.048,39.425,12,35.77,12,32c0-3.745,1.076-7.492,3.036-10.602l-2.039-7.166	c-0.099-0.349-0.001-0.724,0.255-0.98c0.256-0.257,0.632-0.354,0.981-0.255l7.167,2.04C24.575,13.049,28.23,12,32,12	s7.425,1.049,10.599,3.037l7.167-2.04c0.349-0.1,0.724-0.002,0.981,0.255c0.256,0.256,0.354,0.632,0.255,0.98L48.963,21.4	C50.951,24.575,52,28.23,52,32s-1.048,7.425-3.037,10.6l2.039,7.168c0.099,0.349,0.001,0.724-0.255,0.98s-0.633,0.353-0.981,0.255	l-7.167-2.04C39.425,50.951,35.77,52,32,52z M22.34,47.191C25.225,49.029,28.559,50,32,50c3.463,0,6.819-0.983,9.716-2.845	c0.251-0.243,0.61-0.349,0.956-0.251l5.916,1.684l-1.683-5.916c-0.104-0.366,0.009-0.757,0.286-1.011C49.029,38.776,50,35.441,50,32	c0-3.464-0.983-6.819-2.845-9.717c-0.244-0.251-0.349-0.61-0.25-0.955l1.683-5.917l-5.916,1.684	c-0.368,0.103-0.758-0.009-1.011-0.286C38.776,14.971,35.441,14,32,14c-3.464,0-6.819,0.983-9.717,2.845	c-0.251,0.245-0.61,0.348-0.955,0.25l-5.916-1.684l1.683,5.917c0.104,0.368-0.01,0.76-0.289,1.013C14.995,25.159,14,28.579,14,32	c0,3.464,0.983,6.819,2.846,9.717c0.244,0.252,0.348,0.611,0.25,0.955l-1.683,5.916l5.916-1.684	C21.696,46.803,22.086,46.914,22.34,47.191z"/></svg>