<svg xmlns="http://www.w3.org/2000/svg" xmlns:xlink="http://www.w3.org/1999/xlink" viewBox="0,0,256,256" width="48px" height="48px" fill-rule="nonzero"><g fill="none" fill-rule="nonzero" stroke="none" stroke-width="1" stroke-linecap="butt" stroke-linejoin="miter" stroke-miterlimit="10" stroke-dasharray="" stroke-dashoffset="0" font-family="none" font-weight="none" font-size="none" text-anchor="none" style="mix-blend-mode: normal"><g transform="scale(5.33333,5.33333)"><path d="M15.525,12.883c2.355,-1.8 5.288,-2.883 8.475,-2.883c3.046,0 5.859,0.989 8.159,2.646l3.841,-4.608c-3.348,-2.523 -7.495,-4.038 -12,-4.038c-4.707,0 -9.032,1.645 -12.452,4.376z" fill="#f97f00"></path><path d="M37.536,9.319l-3.839,4.606c2.647,2.549 4.303,6.119 4.303,10.075c0,7.72 -6.28,14 -14,14c-7.72,0 -14,-6.28 -14,-14c0,-3.814 1.537,-7.273 4.019,-9.8l-3.972,-4.502c-3.724,3.635 -6.047,8.699 -6.047,14.302c0,11.028 8.972,20 20,20c11.028,0 20,-8.972 20,-20c0,-5.805 -2.501,-11.024 -6.464,-14.681z" fill="#ffffff"></path><path d="M33,36l-8,-8v-13l3,8l9,9zM15,36l8,-8v-13l-3,8l-9,9z" fill="#ffffff"></path></g></g></svg>